<mxfile host="Electron" modified="2024-05-13T20:09:44.663Z" agent="Mozilla/5.0 (Windows NT 10.0; Win64; x64) AppleWebKit/537.36 (KHTML, like Gecko) draw.io/21.2.8 Chrome/112.0.5615.165 Electron/24.2.0 Safari/537.36" etag="Exkqe1b86_AJay98LA3S" version="21.2.8" type="device">
  <diagram name="Page-1" id="CQtip4dhjKSYi7FTJ_hE">
    <mxGraphModel dx="607" dy="361" grid="1" gridSize="10" guides="1" tooltips="1" connect="1" arrows="1" fold="1" page="1" pageScale="1" pageWidth="850" pageHeight="1100" math="0" shadow="0">
      <root>
        <mxCell id="0" />
        <mxCell id="1" parent="0" />
        <mxCell id="NfjAWZ6qAOUPkyOuhpUa-11" style="edgeStyle=orthogonalEdgeStyle;rounded=0;orthogonalLoop=1;jettySize=auto;html=1;exitX=1;exitY=0.5;exitDx=0;exitDy=0;entryX=0;entryY=0.5;entryDx=0;entryDy=0;" edge="1" parent="1" source="NfjAWZ6qAOUPkyOuhpUa-9" target="NfjAWZ6qAOUPkyOuhpUa-10">
          <mxGeometry relative="1" as="geometry">
            <Array as="points">
              <mxPoint x="440" y="100" />
              <mxPoint x="440" y="100" />
            </Array>
          </mxGeometry>
        </mxCell>
        <mxCell id="NfjAWZ6qAOUPkyOuhpUa-12" value="Natural Language" style="edgeLabel;html=1;align=center;verticalAlign=middle;resizable=0;points=[];" vertex="1" connectable="0" parent="NfjAWZ6qAOUPkyOuhpUa-11">
          <mxGeometry x="-0.2377" y="-1" relative="1" as="geometry">
            <mxPoint as="offset" />
          </mxGeometry>
        </mxCell>
        <mxCell id="NfjAWZ6qAOUPkyOuhpUa-24" style="edgeStyle=orthogonalEdgeStyle;rounded=0;orthogonalLoop=1;jettySize=auto;html=1;exitX=0.75;exitY=1;exitDx=0;exitDy=0;entryX=0.197;entryY=0.97;entryDx=0;entryDy=0;entryPerimeter=0;" edge="1" parent="1" source="NfjAWZ6qAOUPkyOuhpUa-9" target="NfjAWZ6qAOUPkyOuhpUa-10">
          <mxGeometry relative="1" as="geometry">
            <Array as="points">
              <mxPoint x="283" y="135" />
              <mxPoint x="476" y="135" />
            </Array>
          </mxGeometry>
        </mxCell>
        <mxCell id="NfjAWZ6qAOUPkyOuhpUa-25" value="Execution Request" style="edgeLabel;html=1;align=center;verticalAlign=middle;resizable=0;points=[];" vertex="1" connectable="0" parent="NfjAWZ6qAOUPkyOuhpUa-24">
          <mxGeometry x="-0.1682" y="-1" relative="1" as="geometry">
            <mxPoint x="18" as="offset" />
          </mxGeometry>
        </mxCell>
        <mxCell id="NfjAWZ6qAOUPkyOuhpUa-9" value="User" style="html=1;dashed=0;whiteSpace=wrap;" vertex="1" parent="1">
          <mxGeometry x="230" y="85" width="70" height="30" as="geometry" />
        </mxCell>
        <mxCell id="NfjAWZ6qAOUPkyOuhpUa-15" style="edgeStyle=orthogonalEdgeStyle;rounded=0;orthogonalLoop=1;jettySize=auto;html=1;exitX=1;exitY=0.5;exitDx=0;exitDy=0;entryX=0;entryY=0.5;entryDx=0;entryDy=0;" edge="1" parent="1" source="NfjAWZ6qAOUPkyOuhpUa-10" target="NfjAWZ6qAOUPkyOuhpUa-14">
          <mxGeometry relative="1" as="geometry" />
        </mxCell>
        <mxCell id="NfjAWZ6qAOUPkyOuhpUa-16" value="Natural Language" style="edgeLabel;html=1;align=center;verticalAlign=middle;resizable=0;points=[];" vertex="1" connectable="0" parent="NfjAWZ6qAOUPkyOuhpUa-15">
          <mxGeometry x="-0.2776" y="-1" relative="1" as="geometry">
            <mxPoint as="offset" />
          </mxGeometry>
        </mxCell>
        <mxCell id="NfjAWZ6qAOUPkyOuhpUa-18" style="edgeStyle=orthogonalEdgeStyle;rounded=0;orthogonalLoop=1;jettySize=auto;html=1;exitX=0.5;exitY=1;exitDx=0;exitDy=0;entryX=0.5;entryY=0;entryDx=0;entryDy=0;" edge="1" parent="1" source="NfjAWZ6qAOUPkyOuhpUa-10" target="NfjAWZ6qAOUPkyOuhpUa-17">
          <mxGeometry relative="1" as="geometry" />
        </mxCell>
        <mxCell id="NfjAWZ6qAOUPkyOuhpUa-19" value="Result" style="edgeLabel;html=1;align=center;verticalAlign=middle;resizable=0;points=[];" vertex="1" connectable="0" parent="NfjAWZ6qAOUPkyOuhpUa-18">
          <mxGeometry x="-0.2798" y="-1" relative="1" as="geometry">
            <mxPoint as="offset" />
          </mxGeometry>
        </mxCell>
        <mxCell id="NfjAWZ6qAOUPkyOuhpUa-22" style="edgeStyle=orthogonalEdgeStyle;rounded=0;orthogonalLoop=1;jettySize=auto;html=1;exitX=0.5;exitY=0;exitDx=0;exitDy=0;entryX=0.5;entryY=0;entryDx=0;entryDy=0;" edge="1" parent="1" source="NfjAWZ6qAOUPkyOuhpUa-10" target="NfjAWZ6qAOUPkyOuhpUa-9">
          <mxGeometry relative="1" as="geometry" />
        </mxCell>
        <mxCell id="NfjAWZ6qAOUPkyOuhpUa-23" value="SPARQL Query" style="edgeLabel;html=1;align=center;verticalAlign=middle;resizable=0;points=[];" vertex="1" connectable="0" parent="NfjAWZ6qAOUPkyOuhpUa-22">
          <mxGeometry x="0.0167" relative="1" as="geometry">
            <mxPoint as="offset" />
          </mxGeometry>
        </mxCell>
        <mxCell id="NfjAWZ6qAOUPkyOuhpUa-10" value="Process Query" style="ellipse;whiteSpace=wrap;html=1;aspect=fixed;" vertex="1" parent="1">
          <mxGeometry x="460" y="60" width="80" height="80" as="geometry" />
        </mxCell>
        <mxCell id="NfjAWZ6qAOUPkyOuhpUa-28" style="edgeStyle=orthogonalEdgeStyle;rounded=0;orthogonalLoop=1;jettySize=auto;html=1;entryX=1;entryY=1;entryDx=0;entryDy=0;" edge="1" parent="1" source="NfjAWZ6qAOUPkyOuhpUa-14" target="NfjAWZ6qAOUPkyOuhpUa-10">
          <mxGeometry relative="1" as="geometry">
            <Array as="points">
              <mxPoint x="785" y="128" />
            </Array>
          </mxGeometry>
        </mxCell>
        <mxCell id="NfjAWZ6qAOUPkyOuhpUa-32" value="SPARQL Query" style="edgeLabel;html=1;align=center;verticalAlign=middle;resizable=0;points=[];" vertex="1" connectable="0" parent="NfjAWZ6qAOUPkyOuhpUa-28">
          <mxGeometry x="-0.3273" y="2" relative="1" as="geometry">
            <mxPoint as="offset" />
          </mxGeometry>
        </mxCell>
        <mxCell id="NfjAWZ6qAOUPkyOuhpUa-14" value="LLM" style="html=1;dashed=0;whiteSpace=wrap;" vertex="1" parent="1">
          <mxGeometry x="750" y="85" width="70" height="30" as="geometry" />
        </mxCell>
        <mxCell id="NfjAWZ6qAOUPkyOuhpUa-20" style="edgeStyle=orthogonalEdgeStyle;rounded=0;orthogonalLoop=1;jettySize=auto;html=1;exitX=0;exitY=0.5;exitDx=0;exitDy=0;entryX=0.329;entryY=0.972;entryDx=0;entryDy=0;entryPerimeter=0;" edge="1" parent="1" source="NfjAWZ6qAOUPkyOuhpUa-17" target="NfjAWZ6qAOUPkyOuhpUa-9">
          <mxGeometry relative="1" as="geometry" />
        </mxCell>
        <mxCell id="NfjAWZ6qAOUPkyOuhpUa-21" value="Formatted Results" style="edgeLabel;html=1;align=center;verticalAlign=middle;resizable=0;points=[];" vertex="1" connectable="0" parent="NfjAWZ6qAOUPkyOuhpUa-20">
          <mxGeometry x="-0.227" y="-3" relative="1" as="geometry">
            <mxPoint x="32" y="3" as="offset" />
          </mxGeometry>
        </mxCell>
        <mxCell id="NfjAWZ6qAOUPkyOuhpUa-17" value="Build HTML Representation of Results" style="ellipse;whiteSpace=wrap;html=1;aspect=fixed;" vertex="1" parent="1">
          <mxGeometry x="440" y="210" width="120" height="120" as="geometry" />
        </mxCell>
      </root>
    </mxGraphModel>
  </diagram>
</mxfile>
